<svg width="42" height="41" viewBox="0 0 42 41" fill="none" xmlns="http://www.w3.org/2000/svg">
<path d="M35.7104 4.48291H6.25129C5.54283 4.48291 4.97046 5.05528 4.97046 5.76374V35.2229C4.97046 35.9313 5.54283 36.5037 6.25129 36.5037H35.7104C36.4189 36.5037 36.9912 35.9313 36.9912 35.2229V5.76374C36.9912 5.05528 36.4189 4.48291 35.7104 4.48291ZM32.012 13.829H29.4543C27.449 13.829 27.0608 14.7816 27.0608 16.1825V19.2685H31.8479L31.2235 24.0996H27.0608V36.5037H22.0696V24.1036H17.8948V19.2685H22.0696V15.7062C22.0696 11.5715 24.5952 9.31805 28.2856 9.31805C30.0547 9.31805 31.5717 9.45013 32.016 9.51017V13.829H32.012Z" fill="white"/>
</svg>
