<svg width="47" height="46" viewBox="0 0 47 46" fill="none" xmlns="http://www.w3.org/2000/svg">
<path d="M23.4999 26.8333C27.7281 26.8333 31.1666 23.3948 31.1666 19.1667C31.1666 14.9385 27.7281 11.5 23.4999 11.5C19.2718 11.5 15.8333 14.9385 15.8333 19.1667C15.8333 23.3948 19.2718 26.8333 23.4999 26.8333ZM23.4999 15.3333C25.614 15.3333 27.3333 17.0526 27.3333 19.1667C27.3333 21.2807 25.614 23 23.4999 23C21.3858 23 19.6666 21.2807 19.6666 19.1667C19.6666 17.0526 21.3858 15.3333 23.4999 15.3333Z" fill="black"/>
<path d="M22.3883 41.8101C22.7127 42.0417 23.1014 42.1663 23.5 42.1663C23.8986 42.1663 24.2873 42.0417 24.6117 41.8101C25.1943 41.398 38.8889 31.5099 38.8333 19.1666C38.8333 10.7122 31.9544 3.83325 23.5 3.83325C15.0456 3.83325 8.16667 10.7122 8.16667 19.157C8.11109 31.5099 21.8057 41.398 22.3883 41.8101ZM23.5 7.66659C29.8423 7.66659 35 12.8243 35 19.1762C35.0403 27.6823 26.5897 35.3203 23.5 37.8253C20.4123 35.3183 11.9598 27.6785 12 19.1666C12 12.8243 17.1578 7.66659 23.5 7.66659Z" fill="white"/>
</svg>
