<svg width="42" height="54" viewBox="0 0 42 54" fill="none" xmlns="http://www.w3.org/2000/svg">
<g clip-path="url(#clip0_5_967)">
<path d="M32.275 17.3325C29.815 17.3325 27.4917 18.3213 25.8346 20.0342L13.825 31.0527C12.7317 32.1828 11.2796 32.8009 9.725 32.8009C6.53042 32.8009 3.91667 30.1345 3.91667 26.8325C3.91667 23.5304 6.53042 20.8641 9.725 20.8641C11.2796 20.8641 12.7317 21.4821 13.8933 22.6829L15.8238 24.4486L18.4375 22.0825L16.2508 20.1224C15.3953 19.2348 14.3782 18.5313 13.2581 18.0524C12.1379 17.5735 10.9371 17.3288 9.725 17.3325C4.63417 17.3325 0.5 21.6057 0.5 26.8325C0.5 32.0592 4.63417 36.3325 9.725 36.3325C12.185 36.3325 14.5083 35.3436 16.1654 33.6308L28.175 22.6122C29.2683 21.4821 30.7204 20.8641 32.275 20.8641C35.4696 20.8641 38.0833 23.5304 38.0833 26.8325C38.0833 30.1345 35.4696 32.8009 32.275 32.8009C30.7375 32.8009 29.2683 32.1828 28.1067 30.9821L26.125 29.1986L23.5625 31.5648L25.7492 33.5425C26.607 34.4257 27.625 35.1252 28.7448 35.6009C29.8646 36.0766 31.0643 36.3192 32.275 36.3148C37.3658 36.3148 41.5 32.0592 41.5 26.8325C41.5 21.5351 37.3658 17.3325 32.275 17.3325Z" fill="#7B8BF4"/>
</g>
<defs>
<clipPath id="clip0_5_967">
<rect width="41" height="53" fill="white" transform="translate(0.5 0.332451)"/>
</clipPath>
</defs>
</svg>
