<svg width="32" height="62" viewBox="0 0 32 62" fill="none" xmlns="http://www.w3.org/2000/svg">
<path d="M10.3993 32.6089L14.1726 28.8355L5.91929 20.5955C5.27929 19.9555 4.17262 20.1289 3.77262 20.9555C2.82595 22.9422 3.17262 25.3822 4.81262 27.0355L10.3993 32.6089ZM19.4393 30.1955C21.4793 31.1422 24.346 30.4755 26.466 28.3555C29.0126 25.8089 29.506 22.1555 27.546 20.1955C25.5993 18.2489 21.946 18.7289 19.386 21.2755C17.266 23.3955 16.5993 26.2622 17.546 28.3022L5.46595 40.3822C5.21665 40.6315 5.07659 40.9696 5.07659 41.3222C5.07659 41.6748 5.21665 42.0129 5.46595 42.2622C5.71526 42.5115 6.05339 42.6516 6.40595 42.6516C6.75852 42.6516 7.09665 42.5115 7.34595 42.2622L15.5993 34.0355L23.8393 42.2755C23.9627 42.399 24.1093 42.4969 24.2706 42.5637C24.4318 42.6305 24.6047 42.6649 24.7793 42.6649C24.9539 42.6649 25.1267 42.6305 25.288 42.5637C25.4493 42.4969 25.5958 42.399 25.7193 42.2755C25.8427 42.1521 25.9407 42.0055 26.0075 41.8443C26.0743 41.683 26.1087 41.5101 26.1087 41.3355C26.1087 41.161 26.0743 40.9881 26.0075 40.8268C25.9407 40.6655 25.8427 40.519 25.7193 40.3955L17.4793 32.1555L19.4393 30.1955Z" fill="#7B8BF4"/>
</svg>
