<svg width="42" height="41" viewBox="0 0 42 41" fill="none" xmlns="http://www.w3.org/2000/svg">
<path d="M35.698 4.48291H6.23884C5.53038 4.48291 4.95801 5.05528 4.95801 5.76374V35.2229C4.95801 35.9313 5.53038 36.5037 6.23884 36.5037H35.698C36.4064 36.5037 36.9788 35.9313 36.9788 35.2229V5.76374C36.9788 5.05528 36.4064 4.48291 35.698 4.48291ZM14.4562 31.7686H9.70509V16.4867H14.4562V31.7686ZM12.0826 14.3973C11.538 14.3973 11.0056 14.2358 10.5527 13.9332C10.0999 13.6307 9.74689 13.2006 9.53846 12.6974C9.33004 12.1942 9.2755 11.6405 9.38176 11.1063C9.48801 10.5721 9.75029 10.0815 10.1354 9.69634C10.5205 9.31121 11.0112 9.04894 11.5454 8.94268C12.0796 8.83643 12.6333 8.89096 13.1365 9.09939C13.6396 9.30782 14.0697 9.66078 14.3723 10.1136C14.6749 10.5665 14.8364 11.0989 14.8364 11.6436C14.8324 13.1645 13.5996 14.3973 12.0826 14.3973ZM32.2437 31.7686H27.4966V24.3358C27.4966 22.5626 27.4646 20.2852 25.027 20.2852C22.5574 20.2852 22.1772 22.2144 22.1772 24.2077V31.7686H17.4341V16.4867H21.9891V18.5761H22.0531C22.6855 17.3753 24.2345 16.1065 26.548 16.1065C31.3591 16.1065 32.2437 19.2725 32.2437 23.3872V31.7686Z" fill="white"/>
</svg>
