<svg width="42" height="41" viewBox="0 0 42 41" fill="none" xmlns="http://www.w3.org/2000/svg">
<path d="M37.645 10.1787C36.4202 10.707 35.0873 11.0873 33.7144 11.2354C35.1398 10.3886 36.2072 9.05077 36.7164 7.47295C35.3788 8.26862 33.9136 8.82656 32.3855 9.12202C31.7469 8.43928 30.9745 7.89538 30.1165 7.52421C29.2585 7.15304 28.3332 6.96255 27.3983 6.96462C23.6159 6.96462 20.5739 10.0306 20.5739 13.793C20.5739 14.3214 20.6379 14.8497 20.742 15.3581C15.0783 15.0619 10.027 12.3561 6.66887 8.21343C6.05697 9.25857 5.73632 10.4486 5.74026 11.6597C5.74026 14.0292 6.94505 16.1186 8.78224 17.3474C7.69955 17.3047 6.64222 17.0071 5.69624 16.4788V16.5628C5.69624 19.881 8.04176 22.6308 11.1678 23.2632C10.5808 23.4157 9.97704 23.4936 9.37062 23.4953C8.92633 23.4953 8.50606 23.4513 8.08178 23.3913C8.94634 26.097 11.464 28.0623 14.4619 28.1263C12.1164 29.9635 9.17849 31.0442 5.98843 31.0442C5.41605 31.0442 4.88771 31.0242 4.33936 30.9602C7.36532 32.9014 10.9556 34.0222 14.8222 34.0222C27.3743 34.0222 34.2428 23.6234 34.2428 14.5976C34.2428 14.3014 34.2428 14.0052 34.2227 13.709C35.5516 12.7364 36.7164 11.5316 37.645 10.1787Z" fill="white"/>
</svg>
